<svg id="Layer_1" data-name="Layer 1" xmlns="http://www.w3.org/2000/svg" xmlns:xlink="http://www.w3.org/1999/xlink" viewBox="0 0 100 44"><defs><style>.cls-1{fill:#0c974b;}.cls-2{fill:#4285e3;}.cls-3{fill:#fbbc05;}.cls-4{fill:#f36615;}.cls-5{fill:url(#linear-gradient);}</style><linearGradient id="linear-gradient" x1="1" y1="22" x2="10.69" y2="22" gradientUnits="userSpaceOnUse"><stop offset="0" stop-color="#f12711"/><stop offset="1" stop-color="#f5af19"/></linearGradient></defs><title>EnerMAN</title><path class="cls-1" d="M19.54,22.2c0-1.36,0-2.53-.09-3.49H22.4l.16,1.5h.07A4,4,0,0,1,26,18.46c2.23,0,3.91,1.47,3.91,4.69v6.48h-3.4V23.58c0-1.41-.49-2.37-1.72-2.37a1.81,1.81,0,0,0-1.72,1.27,2.34,2.34,0,0,0-.13.85v6.3h-3.4Z"/><path class="cls-1" d="M35.25,25.26c.11,1.41,1.5,2.08,3.08,2.08a9.63,9.63,0,0,0,3-.45l.45,2.3a10.79,10.79,0,0,1-4,.67c-3.71,0-5.83-2.15-5.83-5.56,0-2.77,1.72-5.83,5.52-5.83,3.53,0,4.87,2.75,4.87,5.45a8.07,8.07,0,0,1-.11,1.34Zm4-2.32a2,2,0,0,0-1.92-2.21,2.23,2.23,0,0,0-2.1,2.21Z"/><path class="cls-1" d="M44.43,22.31c0-1.61,0-2.66-.09-3.6h2.93l.11,2h.09a3.21,3.21,0,0,1,2.95-2.26,3.5,3.5,0,0,1,.72,0v3.2a4.87,4.87,0,0,0-.92-.09,2.18,2.18,0,0,0-2.32,1.72,4,4,0,0,0-.07.76v5.54h-3.4Z"/><path class="cls-2" d="M65.77,23.87c-.07-1.81-.13-4-.13-6.19h-.07c-.47,1.92-1.1,4.07-1.68,5.83l-1.83,5.88H59.4L57.8,23.56c-.49-1.76-1-3.91-1.36-5.88h0c-.09,2-.16,4.36-.27,6.23l-.27,5.72H52.7l1-15.06H58.2l1.47,5c.47,1.74.94,3.62,1.27,5.39H61c.42-1.74.94-3.73,1.43-5.41l1.61-5H68.5l.83,15.06H66Z"/><path class="cls-3" d="M75.38,25.77l-1.07,3.87H70.78l4.6-15.06h4.47l4.67,15.06H80.86l-1.16-3.87Zm3.82-2.55L78.26,20c-.27-.89-.54-2-.76-2.9h0c-.22.89-.45,2-.69,2.9l-.89,3.2Z"/><path class="cls-4" d="M86.53,29.64V14.58h4l3.13,5.52a43.7,43.7,0,0,1,2.46,5.16h.07A55.85,55.85,0,0,1,95.87,19v-4.4H99V29.64H95.42l-3.22-5.81a56.1,56.1,0,0,1-2.61-5.32l-.07,0c.09,2,.13,4.11.13,6.57v4.54Z"/><polygon class="cls-1" points="16.99 26.24 16.99 29.63 3.42 29.63 6.82 26.24 16.99 26.24"/><polygon class="cls-1" points="14.45 20.44 14.45 23.83 6.82 23.83 9.36 20.44 14.45 20.44"/><polygon class="cls-1" points="16.99 15.09 16.99 18.48 8.51 18.48 11.06 15.09 16.99 15.09"/><path class="cls-5" d="M1.61,30.37,7,24.92a.35.35,0,0,0-.25-.6H6.35a.35.35,0,0,1-.28-.57L9,20.11a.35.35,0,0,0-.28-.57H7.23A.35.35,0,0,1,6.94,19l3.68-4.89a.35.35,0,0,0-.28-.57H4.52a.35.35,0,0,0-.32.2L1.36,19.47a.35.35,0,0,0,.32.51H3a.35.35,0,0,1,.32.51L1.36,24.42a.35.35,0,0,0,.32.51H2.92a.35.35,0,0,1,.32.51L1,30A.35.35,0,0,0,1.61,30.37Z"/></svg>